<svg version="1.1" id="Layer_1" xmlns="http://www.w3.org/2000/svg" xmlns:xlink="http://www.w3.org/1999/xlink" x="0px" y="0px" xml:space="preserve" viewBox="9.62 3.83 358.64 797.86"> 	<path fill="#FDA55F" d="M368.1,4.09c0.03,18.17,0.02,36.34,0.15,54.5c0.02,2.66-1,3.18-3.38,3.17c-13.05-0.09-26.11-0.22-39.16,0 		c-15.46,0.26-30.93,0.44-46.28,2.78c-7.34,1.12-14.56,2.65-21.63,4.92c-20.98,6.75-32.32,21.43-35.4,42.9 		c-2.59,18.07-1.66,36.23-1.06,54.37c0.26,7.79,0.59,15.59,0.88,23.38c0.87,23.13,1.58,46.26,2.66,69.37 		c0.74,15.73,0.82,31.47,0.41,47.19c-0.35,13.44-2.34,26.69-6.93,39.46c-7.41,20.61-21.74,34.54-41.54,43.24 		c-11.77,5.17-24.11,8.38-36.69,10.72c-1.52,0.28-3.11,0.21-3.16,2.46c-0.05,2.42,1.75,2.06,3.17,2.34 		c14.95,2.97,29.6,6.79,43.23,13.95c22.15,11.64,34.14,30.45,38.99,54.42c2.19,10.81,3.02,21.73,3.14,32.75 		c0.33,30.58-1.23,61.11-2.59,91.64c-1.17,26.32-2.46,52.63-2.04,78.99c0.13,8.07,1.19,16.05,3.14,23.89 		c4.82,19.32,17.85,30.35,36.32,35.85c13.31,3.97,27.01,5.45,40.81,6.19c20.84,1.12,41.7,0.71,62.55,0.6 		c3.82-0.02,4.61,1.11,4.57,4.73c-0.2,16.63-0.16,33.27-0.02,49.9c0.03,3.01-0.77,3.89-3.84,3.87c-23.16-0.14-46.33,0.23-69.49-0.19 		c-27.75-0.51-55.42-2.21-82.37-9.73c-18.07-5.04-34.9-12.53-48.86-25.42c-16.15-14.92-24.66-33.92-28.8-55.11 		c-4.33-22.15-3.47-44.52-2.65-66.89c0.39-10.48,0.9-20.94,1.76-31.39c1.5-18.2,3.11-36.4,4.41-54.62 		c1.42-19.9,2.97-39.87,1.6-59.78c-1.31-19.05-12.03-32.72-27.95-42.51c-14.94-9.19-31.54-13.7-48.63-16.74 		c-17.79-3.17-35.78-4.08-53.8-4.59c0-21.5,0-43,0-64.5c19.71-0.2,39.32-1.53,58.69-5.37c17.3-3.43,33.95-8.59,48.49-19.04 		c13.48-9.68,22.1-22.61,23.2-39.28c1.31-19.67-0.22-39.37-1.59-59.01c-1.31-18.73-2.92-37.44-4.44-56.15 		c-0.85-10.45-1.36-20.91-1.75-31.39c-0.8-21.98-1.62-43.96,2.58-65.74c3.91-20.25,11.72-38.61,26.61-53.37 		c13.61-13.49,30.31-21.58,48.47-26.84c25.35-7.34,51.4-9.64,77.66-10.18c1.53,0.04,3.06,0.12,4.59,0.13 		C317.48,4.01,342.79,4.05,368.1,4.09z"></path> </svg>