<?xml version="1.0" encoding="utf-8"?>
<!-- Generator: Adobe Illustrator 28.4.1, SVG Export Plug-In . SVG Version: 6.00 Build 0)  -->
<svg version="1.1" id="Layer_1" xmlns="http://www.w3.org/2000/svg" xmlns:xlink="http://www.w3.org/1999/xlink" x="0px" y="0px"
	 viewBox="0 0 980.7 804.89" style="enable-background:new 0 0 980.7 804.89;" xml:space="preserve">
<style type="text/css">
	.st0{fill:#FDA55F;}
	.st3{fill:#607B96;}
</style>
<g>
	<path class="st0" d="M368.1,4.09c0.03,18.17,0.02,36.34,0.15,54.5c0.02,2.66-1,3.18-3.38,3.17c-13.05-0.09-26.11-0.22-39.16,0
		c-15.46,0.26-30.93,0.44-46.28,2.78c-7.34,1.12-14.56,2.65-21.63,4.92c-20.98,6.75-32.32,21.43-35.4,42.9
		c-2.59,18.07-1.66,36.23-1.06,54.37c0.26,7.79,0.59,15.59,0.88,23.38c0.87,23.13,1.58,46.26,2.66,69.37
		c0.74,15.73,0.82,31.47,0.41,47.19c-0.35,13.44-2.34,26.69-6.93,39.46c-7.41,20.61-21.74,34.54-41.54,43.24
		c-11.77,5.17-24.11,8.38-36.69,10.72c-1.52,0.28-3.11,0.21-3.16,2.46c-0.05,2.42,1.75,2.06,3.17,2.34
		c14.95,2.97,29.6,6.79,43.23,13.95c22.15,11.64,34.14,30.45,38.99,54.42c2.19,10.81,3.02,21.73,3.14,32.75
		c0.33,30.58-1.23,61.11-2.59,91.64c-1.17,26.32-2.46,52.63-2.04,78.99c0.13,8.07,1.19,16.05,3.14,23.89
		c4.82,19.32,17.85,30.35,36.32,35.85c13.31,3.97,27.01,5.45,40.81,6.19c20.84,1.12,41.7,0.71,62.55,0.6
		c3.82-0.02,4.61,1.11,4.57,4.73c-0.2,16.63-0.16,33.27-0.02,49.9c0.03,3.01-0.77,3.89-3.84,3.87c-23.16-0.14-46.33,0.23-69.49-0.19
		c-27.75-0.51-55.42-2.21-82.37-9.73c-18.07-5.04-34.9-12.53-48.86-25.42c-16.15-14.92-24.66-33.92-28.8-55.11
		c-4.33-22.15-3.47-44.52-2.65-66.89c0.39-10.48,0.9-20.94,1.76-31.39c1.5-18.2,3.11-36.4,4.41-54.62
		c1.42-19.9,2.97-39.87,1.6-59.78c-1.31-19.05-12.03-32.72-27.95-42.51c-14.94-9.19-31.54-13.7-48.63-16.74
		c-17.79-3.17-35.78-4.08-53.8-4.59c0-21.5,0-43,0-64.5c19.71-0.2,39.32-1.53,58.69-5.37c17.3-3.43,33.95-8.59,48.49-19.04
		c13.48-9.68,22.1-22.61,23.2-39.28c1.31-19.67-0.22-39.37-1.59-59.01c-1.31-18.73-2.92-37.44-4.44-56.15
		c-0.85-10.45-1.36-20.91-1.75-31.39c-0.8-21.98-1.62-43.96,2.58-65.74c3.91-20.25,11.72-38.61,26.61-53.37
		c13.61-13.49,30.31-21.58,48.47-26.84c25.35-7.34,51.4-9.64,77.66-10.18c1.53,0.04,3.06,0.12,4.59,0.13
		C317.48,4.01,342.79,4.05,368.1,4.09z"/>
		c-25.31-0.04-50.62-0.08-75.93-0.13C290.64,3.96,289.11,3.88,287.58,3.84z"/>
	<path class="st3" d="M642.24,126.03c31.22,0,62.44-0.01,93.67,0c11.3,0,17.27,5.96,17.28,17.23c0.01,6.91,0.06,13.82-0.02,20.73
		c-0.1,9.22-6.48,15.67-15.78,15.68c-63.34,0.05-126.68,0.04-190.02,0c-9.39-0.01-15.94-6.52-16.11-15.92
		c-0.13-7.29-0.14-14.59,0-21.88c0.18-9.41,6.73-15.83,16.15-15.84C579.03,126.01,610.63,126.03,642.24,126.03z"/>
	<path class="st3" d="M401.31,126.03c30.07,0,60.14-0.01,90.21,0c11.22,0,17.3,6.09,17.31,17.29c0.01,6.78,0.05,13.56-0.01,20.34
		c-0.08,9.38-6.57,16-15.94,16c-61.04,0.04-122.08,0.04-183.11,0c-9.37-0.01-15.87-6.62-15.95-15.99c-0.06-7.16-0.05-14.33,0-21.49
		c0.06-9.64,6.49-16.13,16.14-16.14C340.4,126.01,370.86,126.03,401.31,126.03z"/>
	<path class="st3" d="M386.73,479.3c-28.92,0-57.84,0.01-86.76,0c-12.92-0.01-20.74-7.86-20.77-20.78c-0.01-4.22-0.02-8.44,0-12.67
		c0.06-11.8,8.14-20.03,19.98-20.17c8.96-0.11,17.91-0.02,26.87-0.02c48.75,0,97.51,0,146.26,0c14.21,0,21.91,7.64,21.92,21.72
		c0,4.09,0.03,8.19-0.01,12.28c-0.09,11.41-8.19,19.61-19.6,19.63C445.34,479.33,416.04,479.3,386.73,479.3z"/>
	<path class="st3" d="M624.78,479.3c-28.79,0-57.58,0.01-86.37,0c-13.06,0-20.93-7.91-20.99-21.04c-0.02-4.22-0.07-8.45,0.01-12.67
		c0.24-11.61,8.36-19.73,19.95-19.92c5.37-0.09,10.75-0.02,16.12-0.02c52.72,0,105.44-0.01,158.15,0.01
		c10.16,0,18.02,5.04,19.95,14.02c1.82,8.5,1.81,17.37-0.01,25.88c-1.81,8.47-9.53,13.72-18.53,13.73
		C683.64,479.32,654.21,479.3,624.78,479.3z"/>
	<path class="st3" d="M863.44,479.3c-28.92,0-57.84,0.01-86.75,0c-13.11-0.01-20.74-7.61-20.78-20.7c-0.02-4.35-0.04-8.7,0.01-13.05
		c0.13-11.7,8.09-19.77,19.8-19.87c12.54-0.11,25.08-0.03,37.62-0.03c45.17,0,90.34,0,135.5,0c14.33,0,22.13,7.73,22.08,22.01
		c-0.02,4.98,0.46,9.99-0.3,14.94c-1.54,10.13-9.06,16.66-19.28,16.68C922.05,479.32,892.74,479.3,863.44,479.3z"/>
	<path class="st3" d="M401,678.89c-28.79,0-57.58,0.01-86.37,0c-13.18-0.01-20.89-7.76-20.94-21.01c-0.01-4.22-0.04-8.44,0.01-12.67
		c0.13-11.88,8.17-19.94,20.09-19.97c21.11-0.06,42.22-0.02,63.34-0.02c36.72,0,73.45-0.01,110.17,0c13.54,0,21.42,7.9,21.44,21.45
		c0,3.84,0.01,7.68,0,11.51c-0.05,12.59-8.07,20.68-20.59,20.69C459.09,678.9,430.05,678.89,401,678.89z"/>
	<path class="st3" d="M518.06,226.36c28.66,0,57.32,0.31,85.96-0.14c12.65-0.2,21.95,8.71,21.4,21.52
		c-0.18,4.09,0.05,8.19-0.04,12.28c-0.26,11.73-8.23,19.66-19.95,19.73c-14.46,0.08-28.91,0.02-43.37,0.02
		c-43.37,0-86.74-0.27-130.1,0.16c-12.98,0.13-22.68-9.15-21.65-21.59c0.34-4.07,0.01-8.18,0.06-12.27
		c0.14-11.84,7.93-19.67,19.81-19.69C459.47,226.33,488.76,226.36,518.06,226.36z"/>
	<path class="st3" d="M645.19,578.56c-28.66,0-57.31,0.01-85.97,0c-13.84-0.01-21.24-7.48-21.26-21.39c0-3.97-0.02-7.93,0-11.9
		c0.07-12.2,7.94-20.07,20.22-20.11c18.17-0.05,36.33-0.01,54.5-0.01c39.66,0,79.32-0.01,118.97,0c13.74,0,21.32,7.62,21.34,21.39
		c0,3.84,0.01,7.67,0,11.51c-0.05,12.46-7.88,20.46-20.3,20.48C703.53,578.6,674.36,578.56,645.19,578.56z"/>
	<path class="st3" d="M661.68,652.17c0,2.69,0.07,5.37-0.01,8.06c-0.29,10.29-8.36,18.37-18.67,18.62
		c-5.11,0.13-10.24,0.07-15.35,0.02c-10-0.1-17.77-6.47-19.18-16.37c-0.99-6.95-0.98-14.06,0.04-21.02
		c1.39-9.43,9.05-15.97,18.56-16.23c5.24-0.14,10.49-0.16,15.73,0c10.75,0.33,18.68,8.47,18.89,19.24c0.05,2.56,0.01,5.12,0.01,7.67
		C661.69,652.17,661.69,652.17,661.68,652.17z"/>
	<path class="st3" d="M356.78,351.55c0.28-3.4-0.46-7.5,0.64-11.55c2.28-8.47,9.39-14.21,18.16-14.36
		c5.12-0.09,10.24-0.06,15.35-0.01c11.12,0.1,19.29,8.21,19.5,19.4c0.09,4.73,0.05,9.47,0.01,14.2
		c-0.1,10.57-6.67,18.48-17.14,19.71c-6.83,0.8-13.81,0.91-20.65-0.19c-9.18-1.48-15.64-9.16-15.84-18.47
		C356.73,357.59,356.78,354.9,356.78,351.55z"/>
	<path class="st3" d="M544.42,325.62c2.69,0.01,5.37-0.05,8.06,0.02c10.23,0.25,18.37,8.42,18.56,18.69
		c0.09,4.99,0.05,9.98,0.02,14.96c-0.08,10.77-6.75,18.62-17.49,19.71c-6.07,0.62-12.3,0.6-18.39,0.05
		c-10.46-0.96-17.4-8.76-17.72-19.24c-0.15-4.98-0.15-9.98,0-14.96c0.33-11.22,8.48-19.14,19.67-19.23
		C539.56,325.6,541.99,325.62,544.42,325.62z"/>
	<path class="st3" d="M408.41,525.16c2.56,0,5.12-0.05,7.68,0.01c10.37,0.25,18.47,8.07,18.87,18.43c0.21,5.49,0.2,11.01,0,16.5
		c-0.35,9.62-7.31,17.23-16.91,18.33c-6.74,0.77-13.55,0.79-20.29-0.07c-9.09-1.15-16.09-8.9-16.36-18.02
		c-0.16-5.62-0.15-11.26,0-16.89c0.27-9.86,8.31-17.89,18.19-18.26c2.94-0.11,5.88-0.02,8.83-0.02
		C408.41,525.18,408.41,525.17,408.41,525.16z"/>
	<path class="st3" d="M356.52,279.75c-2.69,0-5.38,0.07-8.06-0.01c-10.3-0.32-18.35-8.41-18.55-18.7c-0.1-5.37-0.12-10.75,0-16.12
		c0.21-9.49,7.4-17.39,16.79-18.41c6.24-0.68,12.53-0.63,18.77-0.11c9.87,0.82,16.84,7.23,17.79,16.96
		c0.63,6.45,0.67,13.08-0.02,19.53c-1.1,10.31-8.96,16.75-19.44,16.88c-2.43,0.03-4.86,0-7.29,0
		C356.52,279.76,356.52,279.75,356.52,279.75z"/>
	<path class="st3" d="M490.62,352.46c0,2.43,0.03,4.86-0.01,7.29c-0.16,10.15-6.32,17.7-16.35,19.08
		c-7.07,0.98-14.31,1.05-21.39-0.11c-9.15-1.5-15.37-8.92-15.59-18.19c-0.14-5.62-0.17-11.26,0.03-16.87
		c0.35-9.91,8.44-17.79,18.38-18c5.5-0.11,11-0.11,16.5,0c9.95,0.2,17.96,8.05,18.38,17.99c0.12,2.94,0.02,5.88,0.02,8.82
		C490.6,352.46,490.61,352.46,490.62,352.46z"/>
	<path class="st3" d="M515.19,552.09c0,2.56,0.05,5.12-0.01,7.67c-0.23,9.96-6.97,17.56-16.82,18.67
		c-6.61,0.74-13.28,0.76-19.9-0.03c-9.46-1.12-16.31-8.62-16.59-18.1c-0.17-5.62-0.17-11.26,0-16.88
		c0.3-10.03,8.14-17.91,18.13-18.21c5.62-0.17,11.26-0.16,16.88-0.01c10.06,0.27,17.87,8.04,18.27,18.06
		c0.11,2.94,0.02,5.88,0.02,8.82C515.17,552.09,515.18,552.09,515.19,552.09z"/>
	<path class="st3" d="M585.05,652.19c0,2.81,0.1,5.63-0.02,8.44c-0.43,10.11-8.46,18.01-18.6,18.23c-5.37,0.12-10.74,0.12-16.11,0
		c-10.12-0.23-18.23-8.18-18.56-18.25c-0.18-5.49-0.15-10.99-0.03-16.49c0.24-10.54,8.18-18.52,18.82-18.85
		c5.24-0.17,10.49-0.15,15.72,0c10.56,0.3,18.49,8.32,18.79,18.88c0.08,2.68,0.01,5.37,0.01,8.05
		C585.06,652.19,585.05,652.19,585.05,652.19z"/>
</g>
</svg>
